<svg xmlns="http://www.w3.org/2000/svg" viewBox="0 0 48 48"><defs><style>.cls-1{fill:#dad7e5;}.cls-2{fill:#edebf2;}.cls-3{fill:#c6c3d8;}.cls-4{fill:#db5669;}.cls-5{fill:#f26674;}.cls-6{fill:#919191;}.cls-7{fill:#b5e08c;}.cls-8{fill:#f6ccaf;}.cls-9{fill:#fc6;}.cls-10{fill:#ffde76;}.cls-11{fill:#ffdec7;}</style></defs><title>Survey</title><g id="Survey"><polygon class="cls-1" points="37 8 37 47 3 47 3 1 31 1 37 8"/><path class="cls-2" d="M37,8V45h0A31,31,0,0,1,6,14V1H31Z"/><polygon class="cls-3" points="37 8 31 8 31 1 37 8"/><rect class="cls-4" x="8" y="35" width="6" height="6"/><rect class="cls-4" x="8" y="24" width="6" height="6"/><path class="cls-5" d="M14,24v4h0a4,4,0,0,1-4-4h4Z"/><path class="cls-5" d="M14,35v4h0a4,4,0,0,1-4-4h4Z"/><path class="cls-6" d="M32,19H19a1,1,0,0,1,0-2H32a1,1,0,0,1,0,2Z"/><path class="cls-6" d="M32,15H19a1,1,0,0,1,0-2H32a1,1,0,0,1,0,2Z"/><path class="cls-6" d="M27,30H19a1,1,0,0,1,0-2h8a1,1,0,0,1,0,2Z"/><path class="cls-6" d="M27,26H19a1,1,0,0,1,0-2h8a1,1,0,0,1,0,2Z"/><path class="cls-6" d="M24,41H19a1,1,0,0,1,0-2h5a1,1,0,0,1,0,2Z"/><path class="cls-6" d="M24,37H19a1,1,0,0,1,0-2h5a1,1,0,0,1,0,2Z"/><path class="cls-7" d="M10,19a1,1,0,0,1-.71-.29l-2-2a1,1,0,1,1,1.42-1.42L10,16.59l3.29-3.3a1,1,0,0,1,1.42,1.42l-4,4A1,1,0,0,1,10,19Z"/><path class="cls-8" d="M33.53,36.7l-.12.21L28.75,40l.33-5.58.12-.21a4.55,4.55,0,0,1,2.55.59A4.48,4.48,0,0,1,33.53,36.7Z"/><path class="cls-9" d="M42.91,20.46,33.53,36.7a4.48,4.48,0,0,0-1.78-1.91,4.55,4.55,0,0,0-2.55-.59L38.58,18Z"/><path class="cls-4" d="M42.91,20.46,38.58,18l1.75-3A2.51,2.51,0,0,1,43.75,14h0a2.48,2.48,0,0,1,.91,3.41Z"/><path class="cls-10" d="M42.91,20.46,34,35.93l-.44.77v0a5.53,5.53,0,0,1-.08-5.36l7.07-12.24Z"/><path class="cls-11" d="M33.53,36.7l-.12.21h0A2.17,2.17,0,0,1,30.05,35l0-.56.09-.16a4.18,4.18,0,0,1,1.58.54A4.48,4.48,0,0,1,33.53,36.7Z"/><path class="cls-5" d="M45,16.17a2.48,2.48,0,0,1-.34,1.25l-1.25,2.17h0a3.27,3.27,0,0,1-1.2-4.46l.12-.21a2.53,2.53,0,0,1,1.16-1h0A2.5,2.5,0,0,1,45,16.17Z"/></g></svg>